<svg width="127" height="191" viewBox="0 0 127 191" fill="none" xmlns="http://www.w3.org/2000/svg">
<path d="M98.8252 142.646L126.439 142.678C125.785 149.901 123.089 156.754 119.676 163.076C116.895 167.591 114.741 170.644 110.954 174.444C104.022 181.416 95.3122 186.356 85.7704 188.729C76.4239 191.056 58.7037 190.389 48.3434 190.386L0.00390625 190.376C0.262906 174.534 -0.147338 158.521 0.103912 142.665L27.3299 142.668L27.3462 163.174L58.9419 163.191C63.4564 163.194 72.7237 163.441 76.8479 162.774C80.2744 162.219 83.5632 161.014 86.5362 159.221C92.6902 155.569 97.1182 149.596 98.8252 142.646Z" fill="currentColor"/>
<path d="M60.62 123.764C67.1837 122.952 73.1632 127.614 73.976 134.178C74.7885 140.742 70.1265 146.721 63.5627 147.534C56.9985 148.347 51.018 143.685 50.2052 137.12C49.3927 130.556 54.0555 124.576 60.62 123.764Z" fill="currentColor"/>
<path fill-rule="evenodd" clip-rule="evenodd" d="M49.3184 0.108548C57.3001 0.107798 67.2393 -0.173749 75.0908 0.173001C89.4568 0.808264 102.975 7.15045 112.647 17.7912C122.449 28.4827 127.557 42.6572 126.827 57.1437C126.133 71.9942 119.371 85.2146 108.442 95.1359C109.038 95.6857 109.623 96.2449 110.195 96.8127C117.585 104.138 123.005 112.954 125.337 123.241C125.658 124.658 126.738 127.836 126.126 129.046C125.223 129.588 125.021 129.385 123.79 129.381L98.8379 129.362C97.9197 124.908 94.9429 119.992 91.7412 116.801C88.1832 113.285 83.7341 110.804 78.8721 109.626C74.1126 108.482 63.9991 108.882 58.6191 108.883L27.3184 108.917L27.3271 129.378H0C0.179995 117.347 0.0532364 105.042 0.0527344 92.9953L0.0898438 0.0948763L49.3184 0.108548ZM91.3105 34.8097C80.5853 24.5942 66.9034 27.5231 53.3291 27.2316C45.2977 27.0591 36.3568 27.0143 28.3398 27.2443C28.0086 27.2538 27.6777 27.2652 27.3467 27.2785C27.1414 44.9512 27.0912 63.9702 27.3369 81.6339L58.5068 81.6564C71.4376 81.6589 81.2964 83.3433 91.5049 73.881C96.9172 68.2676 99.862 61.8001 99.7031 53.8957C99.5586 46.67 96.5379 39.8 91.3105 34.8097Z" fill="currentColor"/>
</svg>
