<?xml version="1.0" encoding="UTF-8" standalone="no"?>
<svg xmlns:dc="http://purl.org/dc/elements/1.1/" xmlns:cc="http://creativecommons.org/ns#"
   xmlns:rdf="http://www.w3.org/1999/02/22-rdf-syntax-ns#" xmlns:svg="http://www.w3.org/2000/svg"
   xmlns="http://www.w3.org/2000/svg" xmlns:xlink="http://www.w3.org/1999/xlink"
   xmlns:sodipodi="http://sodipodi.sourceforge.net/DTD/sodipodi-0.dtd"
   xmlns:inkscape="http://www.inkscape.org/namespaces/inkscape" inkscape:version="1.0 (4035a4fb49, 2020-05-01)"
   sodipodi:docname="blobcri.svg" viewBox="0 0 1081.3333 1010.6667" height="1010.6667" width="1081.3333" id="svg2"
   version="1.1">
   <g id="g10" inkscape:label="Image" inkscape:groupmode="layer">
      <g id="g837">
         <path id="path851"
            d="M 82.352207,1001.8588 C 56.50433,979.86643 48.823909,957.91435 59.113633,935.43863 65.942039,920.52342 83.448792,906.78994 104,900.22672 c 17.41005,-5.56005 24.30696,-6.19618 63.91029,-5.89469 23.89793,0.18192 37.44292,-0.17879 36.6458,-0.97591 -0.69548,-0.69548 -14.75512,-6.71146 -31.24364,-13.36886 C 116.62221,857.09804 81.051006,837.6052 54.666665,814.96999 24.575631,789.15477 11.578654,767.80533 6.0419477,735.09677 1.365977,707.47309 -0.3911106,639.46161 2.6334237,603.16325 5.2770761,571.43598 17.367323,490.86146 23.514937,464.00002 34.486391,416.06124 67.514863,339.77838 102.65103,281.2266 163.20897,180.31131 247.61166,101.20956 342.51556,56.426809 439.18675,10.810134 543.44462,-6.6708616 658.66665,3.4175269 777.17012,13.793226 853.77663,41.196659 923.70297,98.225458 1003.7462,163.50513 1055.9183,254.89064 1073.9116,361.33335 c 5.1878,30.68937 6.525,51.5475 5.682,88.63209 -0.8388,36.902 -2.8177,53.2627 -10.8902,90.03458 -14.2511,64.91601 -13.256,58.58865 -13.3154,84.66667 l -0.055,24 6.9473,28 c 10.5854,42.663 11.5684,56.59241 5.4108,76.66667 -8.6921,28.33633 -33.5105,56.50655 -71.96679,81.68601 -25.94424,16.98715 -53.81191,30.69965 -88.39128,43.49362 -29.65866,10.97336 -29.04053,10.40071 -11.30069,10.46915 10.3956,0.0401 19.36137,0.95228 27.96736,2.84536 24.77349,5.44949 51.69362,22.42964 59.27317,37.38714 10.84632,21.40418 10.42993,47.64086 -1.171,73.78536 l -3.40188,7.6667 -443.0168,-0.016 -443.0168,-0.016 -10.314457,-8.7759 z"
            style="fill:#5cabea;stroke-width:1.33333" />
         <path id="path849"
            d="m 311.9251,1004.1737 -7.24943,-6.49307 0.21095,-39.17363 c 0.116,-21.5455 1.16037,-59.87364 2.3208,-85.17364 1.16042,-25.3 3.61262,-83.5 5.44934,-129.33334 1.83671,-45.83333 4.22974,-105.53333 5.31784,-132.66667 1.0881,-27.13333 3.4959,-88.63333 5.35067,-136.66667 3.34681,-86.67277 4.39344,-101.70811 8.08828,-116.19245 1.05588,-4.13919 1.91977,-8.06575 1.91977,-8.72569 0,-1.19486 -17.12122,-14.10252 -27.39976,-20.65661 -8.62194,-5.49779 -19.21926,-10.56651 -29.1671,-13.95072 -9.76971,-3.3236 -14.0998,-3.91775 -14.0998,-1.93469 0,0.66358 -0.88335,8.91358 -1.963,18.33333 -4.30189,37.53327 -10.31229,163.73438 -17.38937,365.12684 -7.4616,212.33439 -8.17482,227.66337 -10.5648,227.06885 -0.88919,-0.2212 -7.67208,-7.35158 -15.0731,-15.84528 L 204.22002,892.44716 175.11001,880.7488 C 138.73217,866.12974 99.62685,847.06967 81.333331,835.04172 55.359993,817.96432 31.578763,795.12995 19.880103,776.03528 6.5369413,754.25644 1.1170349,718.07197 1.1760917,651.16325 1.2166741,605.18517 4.0724179,576.76291 15.493525,508.66668 24.374025,455.71836 28.22105,440.82161 42.006797,406.00001 97.986789,264.5994 173.13138,164.64583 275.99999,94.754039 347.65638,46.068696 432.97573,15.242849 525.33332,4.670007 579.68629,-1.5521707 632.69879,-0.69754861 697.33331,7.4428432 790.39812,19.163887 861.94119,47.855302 923.70297,98.225458 1003.7462,163.50513 1055.9183,254.89064 1073.9116,361.33335 c 5.1878,30.68937 6.525,51.5475 5.682,88.63209 -0.8388,36.902 -2.8177,53.2627 -10.8902,90.03458 -14.2511,64.91601 -13.256,58.58865 -13.3154,84.66667 l -0.055,24 6.9473,28 c 10.5854,42.663 11.5684,56.59241 5.4108,76.66667 -11.3941,37.14491 -51.1378,74.37928 -110.68683,103.69811 -35.53661,17.49637 -63.45805,27.95928 -105.67124,39.5978 -41.45953,11.43075 -45.87698,12.35557 -47.48114,9.94055 -0.78064,-1.17524 -0.94683,-24.59604 -0.43451,-61.23646 1.592,-113.85727 -1.73576,-134.77016 -24.92649,-156.64712 -10.77455,-10.16418 -12.96736,-11.37043 -27.82452,-15.30626 -6.23333,-1.65128 -12.31851,-3.5237 -13.5226,-4.16094 -2.4214,-1.28148 -5.14511,-14.15638 -8.43787,-39.88569 -4.15008,-32.42816 -4.97078,-60.00697 -4.50346,-151.33333 0.4496,-87.86571 -0.0665,-104.83463 -3.32319,-109.24905 -1.98391,-2.68922 -16.39933,-6.99318 -34.21288,-10.2148 -16.36558,-2.95974 -54.5217,-7.12557 -55.57922,-6.06804 -0.40012,0.40012 1.44661,8.40848 4.10385,17.79635 6.87888,24.30263 8.51448,38.56011 9.45307,82.4022 0.45529,21.26667 1.67566,71.96667 2.71194,112.66667 1.03628,40.7 2.2905,90.00284 2.78714,109.56187 0.49664,19.55903 1.26753,36.09619 1.7131,36.74926 0.44556,0.65306 6.81012,4.37476 14.14346,8.27044 16.15792,8.58353 48.14654,27.85182 50.05361,30.1497 1.57246,1.89471 4.53336,24.96823 6.54388,50.99497 2.32881,30.14721 4.5612,120.31508 3.017,121.85928 -1.64968,1.64968 -29.8918,5.50468 -60.94783,8.31927 -28.43994,2.57749 -64.99413,4.33454 -127.8359,6.1447 l -49.16923,1.41632 -7.89769,3.98675 c -4.34372,2.19271 -16.71757,9.17323 -27.49742,15.51225 -45.82439,26.94677 -75.64056,42.56204 -93.34588,48.88694 -8.31229,2.9694 -11.95296,3.4816 -24.74609,3.4816 h -14.99995 z"
            style="fill:#f9825e;stroke-width:1.33333" />
         <path id="path847"
            d="m 311.9251,1004.1737 -7.24943,-6.49307 0.21095,-39.17363 c 0.116,-21.5455 1.16037,-59.87364 2.3208,-85.17364 1.16042,-25.3 3.61262,-83.5 5.44934,-129.33334 1.83671,-45.83333 4.22974,-105.53333 5.31784,-132.66667 1.0881,-27.13333 3.4959,-88.63333 5.35067,-136.66667 3.34681,-86.67277 4.39344,-101.70811 8.08828,-116.19245 1.05588,-4.13919 1.91977,-8.06575 1.91977,-8.72569 0,-1.19486 -17.12122,-14.10252 -27.39976,-20.65661 -12.03309,-7.67291 -34.44505,-17.09192 -40.66914,-17.09192 -2.34372,0 -4.08451,9.89429 -5.98188,34 -0.40405,5.13333 -1.04001,11.85219 -1.41324,14.93079 -0.78555,6.47953 -1.22699,6.46212 -12.21492,-0.48185 -35.02351,-22.13363 -57.14272,-24.84194 -90.26666,-11.05241 -35.62903,14.83241 -75.639112,56.87001 -87.50259,91.93681 -3.609473,10.6691 -4.941123,33.15736 -2.624277,44.31753 5.124903,24.68654 25.912607,45.02598 46.000937,45.00898 14.55317,-0.012 21.04838,-6.24912 43.73307,-41.99318 15.85793,-24.98718 25.94811,-35.81889 41.55259,-44.60628 9.62965,-5.42279 56.87496,-25.74908 57.7698,-24.85425 0.2097,0.20972 -0.51496,18.62413 -1.61038,40.92092 -2.69474,54.85039 -5.36714,122.15035 -9.3662,235.87295 -7.40561,210.59602 -8.20716,228.02052 -10.48641,227.95888 -1.69175,-0.0457 -24.37035,-26.17676 -26.7048,-30.77014 -0.92807,-1.8261 -3.72747,-3.52369 -7.4828,-4.53766 -13.34453,-3.60315 -60.7346,-23.55942 -84.09838,-35.41441 C 63.016579,827.07895 24.891006,792.18969 13.520878,760.76681 7.9677387,745.41997 5.8304076,733.87549 3.2998372,705.5594 0.59073294,675.24558 1.1864955,617.27671 4.51488,587.33335 c 2.9294132,-26.35406 8.4329,-62.15788 10.964808,-71.33333 1.112974,-4.03334 2.607061,-11.53334 3.320193,-16.66667 4.144629,-29.83424 12.601994,-61.39002 24.478539,-91.33334 3.92668,-9.9 7.874824,-20.4 8.773653,-23.33333 C 59.720962,359.63925 95.193872,291.86337 120.44111,254.00001 178.09351,167.53851 259.93855,95.458963 345.30491,55.966235 417.28473,22.666467 488.3356,5.6026511 573.33332,1.2021623 c 63.82273,-3.304221 156.88363,8.0081808 217.33332,26.4188497 62.57833,19.058968 120.42232,54.796044 168.0845,103.845678 66.79936,68.74392 105.83276,153.73136 118.54146,258.10048 6.4328,52.82824 2.5881,100.2211 -13.9225,171.6223 -12.5488,54.26818 -12.8556,71.28938 -2.0504,113.76155 9.537,37.48735 11.3788,55.59927 7.3787,72.56115 -12.1416,51.48594 -77.64387,101.82012 -176.69843,135.78122 -21.81826,7.48044 -74.86224,21.94347 -82.10434,22.38665 l -5.22899,0.31999 0.423,-60 c 0.76419,-108.39449 -1.74442,-128.73481 -18.60148,-150.82406 -5.96805,-7.82047 -19.21265,-18.58609 -23.15485,-18.82101 -3.41072,-0.20324 -23.30541,-5.63106 -26.18927,-7.14514 -2.38632,-1.25288 -5.06093,-13.7536 -8.38918,-39.2098 -4.25735,-32.56243 -5.14888,-63.49232 -4.33898,-150.53204 0.52235,-56.13579 0.31732,-88.88325 -0.60104,-96.00001 -0.7666,-5.9407 -1.48856,-12.12294 -1.60434,-13.7383 -0.24423,-3.4072 -2.35735,-4.51639 -14.21052,-7.45915 -16.43392,-4.08 -75.16859,-11.54636 -76.93497,-9.77999 -0.38779,0.3878 1.46902,8.38608 4.12626,17.77395 6.87888,24.30263 8.51448,38.56011 9.45307,82.4022 0.45529,21.26667 1.67567,71.96667 2.71195,112.66667 1.03628,40.7 2.29177,90.05 2.78998,109.66667 0.76292,30.0393 0.61248,35.67323 -0.95356,35.70828 -2.42274,0.0543 5.86794,5.18578 20.51086,12.69528 6.43697,3.30115 19.44176,10.79703 28.89953,16.65751 13.90265,8.61475 17.33996,11.35287 17.94793,14.29717 3.22697,15.62755 6.70499,71.72487 8.21965,132.57577 l 0.88616,35.60065 -3.16176,0.70646 c -5.18454,1.15838 -46.00034,5.98308 -62.4951,7.38733 -22.25803,1.89488 -102.26402,5.13864 -138.66666,5.62209 -17.23334,0.22888 -31.63334,0.78875 -32,1.24416 -0.36667,0.45542 -4.44679,2.72926 -9.06692,5.05298 -4.62015,2.32372 -17.22015,9.41144 -28,15.75046 -45.82439,26.94677 -75.64056,42.56204 -93.34588,48.88694 -8.31226,2.9694 -11.95293,3.4816 -24.74606,3.4816 h -14.99995 z"
            style="fill:#fac11a;stroke-width:1.33333" />
         <path id="path845"
            d="m 311.9251,1004.1737 -7.24943,-6.49307 0.21095,-39.17363 c 0.116,-21.5455 1.16037,-59.87364 2.3208,-85.17364 1.16042,-25.3 3.61262,-83.5 5.44934,-129.33334 1.83671,-45.83333 4.22974,-105.53333 5.31784,-132.66667 1.0881,-27.13333 3.4959,-88.63333 5.35067,-136.66667 3.34681,-86.67277 4.39344,-101.70811 8.08828,-116.19245 1.05588,-4.13919 1.91977,-8.06575 1.91977,-8.72569 0,-1.19486 -17.12122,-14.10252 -27.39976,-20.65661 -12.03309,-7.67291 -34.44505,-17.09192 -40.66914,-17.09192 -2.34372,0 -4.08451,9.89429 -5.98188,34 -0.40405,5.13333 -1.04001,11.85219 -1.41324,14.93079 -0.78555,6.47953 -1.22699,6.46212 -12.21492,-0.48185 -35.02351,-22.13363 -57.14272,-24.84194 -90.26666,-11.05241 -35.62903,14.83241 -75.639112,56.87001 -87.50259,91.93681 -3.609473,10.6691 -4.941123,33.15736 -2.624277,44.31753 5.124903,24.68654 25.912607,45.02598 46.000937,45.00898 14.55317,-0.012 21.04838,-6.24912 43.73307,-41.99318 15.85793,-24.98718 25.94811,-35.81889 41.55259,-44.60628 9.62965,-5.42279 56.87496,-25.74908 57.7698,-24.85425 0.2097,0.20972 -0.51496,18.62413 -1.61038,40.92092 -2.69474,54.85039 -5.36714,122.15035 -9.3662,235.87295 -7.40561,210.59602 -8.20716,228.02052 -10.48641,227.95888 -1.72549,-0.0467 -24.42932,-26.26255 -26.71547,-30.8481 -0.8214,-1.64757 -2.77078,-3.32149 -4.33197,-3.71984 -1.56119,-0.39834 -7.47332,-6.42426 -13.13807,-13.39093 -5.66476,-6.96667 -15.78262,-18.88175 -22.48416,-26.47796 -17.88442,-20.27207 -17.49906,-19.49423 -13.28303,-26.81167 1.91517,-3.32404 12.91661,-18.64371 24.44763,-34.04371 24.44654,-32.64903 28.81416,-39.277 36.7521,-55.77216 13.83868,-28.75696 15.05877,-57.70493 3.161,-74.99775 -4.35323,-6.32721 -22.43802,-20.37572 -36.83068,-28.61057 -14.27672,-8.16852 -30.89304,-13.60387 -43.79075,-14.32435 -12.63545,-0.70583 -37.777159,3.51972 -69.941613,11.75505 -11.348746,2.90571 -21.71161,5.28311 -23.028584,5.28311 -1.316976,0 -2.982539,-1.35 -3.701251,-3 -3.016025,-6.92411 -17.797135,-80.3325 -21.947643,-109 -1.687756,-11.65732 4.840758,-49.86764 13.357067,-78.17673 4.767868,-15.84888 17.002964,-48.31498 22.110873,-58.67169 4.081344,-8.27528 18.221961,-25.32627 31.159838,-37.57304 20.625203,-19.52348 53.889813,-39.25843 76.017113,-45.0988 12.52531,-3.30599 52.08727,-3.31944 68,-0.0232 15.04037,3.11561 14.95109,3.13489 16.00484,-3.45662 8.89291,-55.62761 44.77942,-89.99576 91.12302,-87.26756 9.31423,0.54832 12.71396,1.43897 20.85955,5.46475 17.42,8.60942 30.01861,25.66132 34.78349,47.07857 3.98923,17.93079 0.73808,41.56662 -8.12861,59.09506 -3.47871,6.87698 -19.58404,28.0126 -25.81553,33.87864 -2.28806,2.15387 -4.1601,4.47439 -4.1601,5.15671 0,0.6823 4.08523,5.82005 9.07828,11.4172 13.49975,15.13304 25.53616,30.01992 46.76772,57.8433 10.49239,13.75 19.76939,24.99262 20.61553,24.98358 0.84616,-0.009 17.84675,-12.20159 37.77908,-27.09458 48.68939,-36.3796 69.38788,-50.0383 96.09272,-63.41058 6.05,-3.0295 10.99768,-6.25148 10.99484,-7.15996 -0.003,-0.90848 -1.55633,-9.45179 -3.45221,-18.98513 -8.1123,-40.79232 -0.24663,-71.49204 24.79067,-96.75804 12.03628,-12.14624 21.43907,-17.71889 36.1921,-21.44963 31.70934,-8.01862 61.54914,6.73767 76.97071,38.06333 5.93723,12.06021 8.47867,24.4336 8.51934,41.47768 0.0397,16.63006 -1.70338,24.63962 -9.76668,44.87892 -2.88683,7.24613 -5.24877,13.64703 -5.24877,14.22425 0,0.57724 4.22162,2.14447 9.38138,3.48274 27.562,7.14866 62.15844,33.47918 80.78863,61.48629 18.1386,27.26807 24.89605,53.21983 24.80461,95.2612 -0.09,41.37607 -8.67217,72.22729 -35.32092,126.97167 l -14.75203,30.30502 3.8825,2.92552 c 8.59905,6.47952 19.26482,18.63759 23.2153,26.46344 4.59426,9.10116 9.40226,26.08587 9.21352,32.54764 -0.0667,2.28149 -0.89134,-0.12813 -1.8481,-5.39968 -3.05044,-16.80741 -6.83736,-25.89607 -15.54338,-37.30432 -5.96805,-7.82047 -19.21265,-18.58609 -23.15485,-18.82101 -3.41072,-0.20324 -23.30541,-5.63106 -26.18927,-7.14514 -2.38632,-1.25288 -5.06093,-13.7536 -8.38918,-39.2098 -4.25735,-32.56243 -5.14888,-63.49232 -4.33898,-150.53204 0.52235,-56.13579 0.31732,-88.88325 -0.60104,-96.00001 -0.7666,-5.9407 -1.48856,-12.12294 -1.60434,-13.7383 -0.24423,-3.4072 -2.35735,-4.51639 -14.21052,-7.45915 -16.43392,-4.08 -75.16859,-11.54636 -76.93497,-9.77999 -0.38779,0.3878 1.46902,8.38608 4.12626,17.77395 6.87888,24.30263 8.51448,38.56011 9.45307,82.4022 0.45529,21.26667 1.67567,71.96667 2.71195,112.66667 1.03628,40.7 2.29177,90.05 2.78998,109.66667 0.76292,30.0393 0.61248,35.67323 -0.95356,35.70828 -2.42274,0.0543 5.86794,5.18578 20.51086,12.69528 6.43697,3.30115 19.44176,10.79703 28.89953,16.65751 13.90265,8.61475 17.33996,11.35287 17.94793,14.29717 1.79203,8.67845 4.8538,44.7763 5.37685,63.39257 l 0.56895,20.2492 -1.19165,-19.33334 c -1.2583,-20.41477 -5.01979,-60.11914 -6.13196,-64.72597 -0.79687,-3.30071 -31.01047,-21.93303 -54.81528,-33.80384 -45.65535,-22.7671 -92.231,-21.2307 -126.46062,4.17157 -19.19718,14.24649 -26.69558,30.68056 -28.14812,61.69158 -1.28648,27.46544 4.46297,55.65005 19.58232,95.9952 3.66765,9.78693 6.66846,18.63939 6.66846,19.67211 0,1.03273 -8.33662,9.03005 -18.52584,17.77185 l -18.52584,15.89417 10.19251,0.8051 c 10.11176,0.79872 10.08948,0.80401 -2.81081,0.66666 -7.15183,-0.0761 -13.15183,0.23663 -13.33334,0.69502 -0.1815,0.45838 -4.11013,2.73222 -8.73026,5.05297 -4.62015,2.32075 -17.22015,9.40603 -28,15.74505 -45.82439,26.94677 -75.64056,42.56204 -93.34588,48.88694 -8.31226,2.9694 -11.95293,3.4816 -24.74606,3.4816 h -14.99995 z m 227.01655,-69.16107 c 4.91792,-0.25581 13.31792,-0.25752 18.66667,-0.004 5.34874,0.25373 1.325,0.46303 -8.94167,0.46511 -10.26667,0.003 -14.64292,-0.20552 -9.725,-0.46132 z m 42.76523,-1.32763 c 3.50546,-0.27557 8.90546,-0.27224 12,0.008 3.09454,0.27963 0.22644,0.5051 -6.37356,0.50103 -6.6,-0.004 -9.1319,-0.23285 -5.62644,-0.50841 z m 30.66666,-1.33333 c 3.50547,-0.27557 8.90547,-0.27224 12,0.008 3.09455,0.27963 0.22644,0.50509 -6.37356,0.50103 -6.6,-0.004 -9.13189,-0.23286 -5.62644,-0.50842 z m 27.31699,-1.31795 c 2.39646,-0.29674 5.99646,-0.29062 8,0.0136 2.00353,0.30424 0.0428,0.54703 -4.35722,0.53955 -4.4,-0.008 -6.03925,-0.2564 -3.64278,-0.55315 z m 17.97612,-1.32202 c 2.01666,-0.30551 5.31666,-0.30551 7.33333,0 2.01667,0.30549 0.36667,0.55545 -3.66667,0.55545 -4.03333,0 -5.68333,-0.24996 -3.66666,-0.55545 z m 14,-1.31931 c 1.65,-0.31781 4.35,-0.31781 6,0 1.65,0.3178 0.3,0.57783 -3,0.57783 -3.3,0 -4.65,-0.26003 -3,-0.57783 z m 12,-1.33333 c 1.65,-0.31782 4.35,-0.31782 6,0 1.65,0.3178 0.3,0.57782 -3,0.57782 -3.3,0 -4.65,-0.26002 -3,-0.57782 z m 12.01554,-1.33538 c 1.65855,-0.31892 4.05855,-0.30681 5.33334,0.0269 1.27478,0.33372 -0.0823,0.59466 -3.01555,0.57986 -2.93333,-0.0148 -3.97633,-0.28785 -2.31779,-0.60677 z m 9.98445,-1.30942 c 1.28334,-0.33536 3.38334,-0.33536 4.66667,0 1.28333,0.33537 0.23333,0.60977 -2.33333,0.60977 -2.56667,0 -3.61667,-0.2744 -2.33334,-0.60977 z m 12.33334,-1.60344 5.33333,-0.81079 0.72595,-18 0.72596,-18 0.27404,18.19068 c 0.30162,20.02053 0.31022,19.99987 -8.16834,19.62011 -3.84638,-0.17228 -3.74717,-0.26174 1.10906,-1 z m 86.59565,-17.8484 c -0.35971,-0.93736 -0.47744,-13.68736 -0.26164,-28.33334 l 0.39236,-26.62905 0.30348,27.57393 c 0.30184,27.42538 0.31964,27.57704 3.30348,28.15176 l 3,0.57783 -3.04184,0.18157 c -1.67303,0.0999 -3.33615,-0.58534 -3.69584,-1.5227 z m 16.07101,-2.38398 c 5.13333,-1.38281 9.91516,-2.3347 10.62628,-2.11532 1.49827,0.46222 -15.65208,4.92991 -18.23364,4.74988 -0.94928,-0.0661 2.47403,-1.25174 7.60736,-2.63456 z m 17.362,-4.44954 c 2.94911,-0.98074 7.44911,-2.14115 10,-2.5787 4.42191,-0.75846 4.38817,-0.71245 -0.724,0.98763 -2.94911,0.98073 -7.44911,2.14115 -10,2.57869 -4.42191,0.75847 -4.38817,0.71246 0.724,-0.98762 z m 22.638,-6.127 c 4.4,-1.42895 9.8,-2.89892 12,-3.26662 2.2,-0.36769 0.4,0.50062 -4,1.92955 -4.4,1.42895 -9.8,2.89892 -12,3.26661 -2.2,0.3677 -0.4,-0.50061 4,-1.92954 z M 723.215,861.33336 c 0,-12.83333 0.19998,-18.08333 0.4444,-11.66667 0.24442,6.41667 0.24442,16.91667 0,23.33334 -0.24442,6.41667 -0.4444,1.16667 -0.4444,-11.66667 z m 82.42272,-42 c -0.1719,-16.86667 -0.5709,-41.16667 -0.88666,-54 l -0.57411,-23.33334 1.23497,22.00001 c 0.67923,12.1 1.07824,36.4 0.88667,54 l -0.34829,32 z"
            style="fill:#f4ac1e;stroke-width:1.33333" />
         <path id="path843"
            d="m 311.9251,1004.1737 -7.24943,-6.49307 0.21095,-39.17363 c 0.116,-21.5455 1.16037,-59.87364 2.3208,-85.17364 1.16042,-25.3 3.61262,-83.5 5.44934,-129.33334 1.83671,-45.83333 4.22974,-105.53333 5.31784,-132.66667 1.0881,-27.13333 3.4959,-88.63333 5.35067,-136.66667 3.34681,-86.67277 4.39344,-101.70811 8.08828,-116.19245 1.05588,-4.13919 1.91977,-8.06575 1.91977,-8.72569 0,-1.19486 -17.12122,-14.10252 -27.39976,-20.65661 -12.03309,-7.67291 -34.44505,-17.09192 -40.66914,-17.09192 -2.34372,0 -4.08451,9.89429 -5.98188,34 -0.40405,5.13333 -1.04001,11.85219 -1.41324,14.93079 -0.78555,6.47953 -1.22699,6.46212 -12.21492,-0.48185 -35.02351,-22.13363 -57.14272,-24.84194 -90.26666,-11.05241 -35.62903,14.83241 -75.639112,56.87001 -87.50259,91.93681 -3.609473,10.6691 -4.941123,33.15736 -2.624277,44.31753 5.124903,24.68654 25.912607,45.02598 46.000937,45.00898 14.55317,-0.012 21.04838,-6.24912 43.73307,-41.99318 15.85793,-24.98718 25.94811,-35.81889 41.55259,-44.60628 9.62965,-5.42279 56.87496,-25.74908 57.7698,-24.85425 0.2097,0.20972 -0.51496,18.62413 -1.61038,40.92092 -2.69474,54.85039 -5.36714,122.15035 -9.3662,235.87295 -7.52089,213.87418 -8.19504,228.32796 -10.62188,227.73552 -1.84436,-0.45026 -24.4538,-25.95663 -25.74813,-29.04722 -0.95361,-2.27705 -29.57764,-36.77655 -43.93508,-52.95335 -5.33624,-6.01244 -9.70225,-11.89536 -9.70225,-13.07316 0,-2.84844 7.6828,-14.07781 27.81958,-40.66178 35.95338,-47.46457 44.92651,-65.89675 46.43954,-95.39381 0.87144,-16.98914 -0.93351,-25.46806 -7.54695,-35.45254 -5.62624,-8.49407 -26.95148,-24.55219 -44.04551,-33.16669 -30.62385,-15.43282 -47.42638,-15.51349 -107.783396,-0.51744 -13.44754,3.34112 -24.745495,5.77935 -25.10657,5.41827 -2.050916,-2.05091 -12.565221,-51.67215 -19.964631,-94.22114 -5.335911,-30.6832 -5.331204,-33.53628 0.09957,-60.35794 7.408626,-36.58994 21.100578,-73.83098 34.312299,-93.32675 10.858578,-16.02339 36.625188,-41.82582 52.526338,-52.59935 12.24271,-8.29483 32.18692,-18.92295 42.35112,-22.56859 19.93076,-7.14867 51.52758,-7.56863 82.80852,-1.10064 5.08377,1.05119 9.49593,1.65855 9.80477,1.34969 0.30885,-0.30884 1.41879,-5.50136 2.46652,-11.5389 9.03545,-52.06661 42.78925,-84.20486 86.42536,-82.28882 15.60636,0.68528 26.90267,5.62733 37.37083,16.34948 12.7031,13.01129 19.31338,30.39772 19.34011,50.86854 0.0341,26.09774 -7.64299,43.33989 -31.26141,70.21088 l -10.25237,11.66427 10.66983,11.66906 c 11.61927,12.70742 25.12854,29.40239 50.7858,62.76194 10.9455,14.23133 17.4389,21.5738 19.07903,21.5738 1.36749,0 17.90077,-11.51852 36.74064,-25.59671 50.5073,-37.74187 77.95182,-55.85047 100.96668,-66.62041 4.86229,-2.27534 9.13202,-4.8966 9.48829,-5.82503 0.35628,-0.92843 -0.98382,-9.39876 -2.97798,-18.82295 -8.21202,-38.8092 -2.51166,-67.03032 18.7447,-92.8004 8.41702,-10.20434 24.18466,-21.27186 35.13169,-24.6594 5.27685,-1.63291 12.00724,-2.34178 22.23425,-2.34178 13.8855,0 15.14575,0.2343 23.66164,4.39904 17.70036,8.65647 32.1326,26.0832 38.31729,46.26763 4.41336,14.40348 5.08431,34.55967 1.60778,48.29991 -2.1919,8.663 -12.66516,37.81275 -14.44618,40.20736 -0.2075,0.279 -8.64901,-0.76994 -18.7589,-2.33098 -21.35793,-3.29783 -48.29627,-6.03942 -49.3166,-5.0191 -0.38779,0.3878 1.46903,8.38608 4.12627,17.77395 6.87888,24.30263 8.51448,38.56011 9.45306,82.4022 0.4553,21.26667 1.67567,71.96667 2.71195,112.66667 1.03628,40.7 2.29177,90.05 2.78999,109.66667 1.02738,40.45223 2.033,37.4225 -10.93756,32.95275 -32.91762,-11.34368 -72.29648,-7.77468 -99.54309,9.0218 -24.89144,15.34461 -35.04662,34.49544 -36.60975,69.03935 -0.42169,9.31913 -0.0605,21.00404 0.86381,27.95035 2.31072,17.36402 9.68967,44.83952 17.47296,65.06052 3.73482,9.70305 7.09423,18.86079 7.46536,20.35052 0.54042,2.16928 -2.86288,5.72505 -17.09162,17.85737 -9.77152,8.33182 -19.0524,16.52199 -20.62419,18.2004 -1.57177,1.6784 -6.55189,4.91643 -11.06692,7.1956 -4.51503,2.27919 -17.02902,9.33046 -27.80888,15.66948 -45.82438,26.94677 -75.64056,42.56204 -93.34588,48.88694 -8.31226,2.9694 -11.95293,3.4816 -24.74606,3.4816 H 319.17451 Z M 750.21552,673.30024 c -7.21477,-2.01802 -13.62057,-4.18611 -14.23508,-4.818 -1.45522,-1.49636 -4.63093,-18.51065 -7.19421,-38.54409 -4.19535,-32.78881 -5.02108,-60.39604 -4.62427,-154.6048 0.27658,-65.66195 -0.0519,-95.30955 -1.1077,-99.99895 -0.82546,-3.66609 -1.28146,-6.88499 -1.01334,-7.15311 0.26812,-0.26812 5.16859,2.0367 10.88994,5.1218 45.61405,24.59632 74.44737,65.28062 80.34525,113.36847 5.69732,46.45258 -1.88832,89.66798 -24.57347,139.99513 -4.90317,10.87769 -24.23704,49.37953 -25.18372,50.15132 -0.10213,0.0832 -6.08861,-1.49977 -13.3034,-3.51777 z"
            style="fill:#e76955;stroke-width:1.33333" />
         <path id="path841"
            d="m 313.99999,1003.5299 -6.66667,-6.8632 0.17615,-40 c 0.0969,-22 0.853,-53.5 1.68025,-70 1.3943,-27.80989 13.42292,-324.43459 18.16715,-448.00002 1.90044,-49.49763 3.74559,-70.55975 7.22327,-82.45235 1.51904,-5.19465 1.02281,-5.86051 -11.24682,-15.09151 -17.19952,-12.94 -32.82289,-21.572 -47.33333,-26.15194 -16.92118,-5.34087 -15.34632,-6.14066 -17.17706,8.7232 -0.87879,7.13493 -1.96755,18.57754 -2.41948,25.42802 -0.52324,7.93137 -1.4149,12.68307 -2.45488,13.08215 -0.89827,0.3447 -5.58394,-1.79141 -10.41263,-4.74689 -20.25703,-12.39867 -37.63445,-18.81322 -50.84248,-18.76754 -42.05618,0.14547 -97.21936,41.22906 -120.69358,89.88833 -7.443603,15.4297 -9.77305,25.02276 -9.748631,40.14649 0.03417,21.16828 6.42825,37.28286 19.731072,49.727 12.953487,12.11735 25.160759,16.65135 36.564389,13.58068 8.52637,-2.29592 17.51215,-11.55 30.45625,-31.36564 29.24099,-44.76393 31.0059,-46.61137 56.99703,-59.66225 10.85051,-5.44835 42.16768,-18.33775 44.55494,-18.33775 1.20818,0 1.43024,2.66623 0.8606,10.33333 -0.42226,5.68334 -1.3598,23.83334 -2.08344,40.33334 -0.72364,16.5 -1.9195,43.8 -2.65746,60.66667 -0.73797,16.86666 -3.45118,90.06667 -6.02936,162.66667 -5.35125,150.68755 -8.2056,222.00477 -8.91372,222.71289 -0.26981,0.26982 -6.1197,-6.0802 -12.99976,-14.11115 -6.88005,-8.03096 -12.94368,-14.60173 -13.47474,-14.60173 -0.53107,0 -8.05619,-8.55 -16.72251,-19 -8.66632,-10.45 -20.13191,-23.91927 -25.47908,-29.93173 -5.34717,-6.01244 -9.72213,-11.89536 -9.72213,-13.07316 0,-2.84844 7.6828,-14.07781 27.81958,-40.66178 35.95338,-47.46457 44.92651,-65.89675 46.43954,-95.39381 0.87144,-16.98914 -0.93351,-25.46806 -7.54695,-35.45254 -5.62624,-8.49407 -26.95148,-24.55219 -44.04551,-33.16669 -30.62385,-15.43282 -47.42638,-15.51349 -107.783396,-0.51744 -13.44754,3.34112 -24.745495,5.77935 -25.10657,5.41827 -2.063513,-2.06351 -12.645452,-52.05588 -19.921278,-94.11432 -5.165007,-29.8567 -5.168249,-29.21283 0.290464,-57.66308 7.029938,-36.63931 21.679617,-77.51173 34.806755,-97.11041 10.023461,-14.96492 36.213868,-41.0588 51.831815,-51.64079 13.30471,-9.01464 34.79594,-20.15269 45.21555,-23.43342 17.90916,-5.6389 47.65476,-6.28014 72.66666,-1.5665 15.05055,2.83638 20.18567,3.35314 19.31459,1.94371 -1.27573,-2.06417 2.04752,-18.95317 6.15951,-31.303 10.85109,-32.58992 33.40161,-54.11916 62.80302,-59.95879 12.57212,-2.49704 19.68347,-2.55433 28.38955,-0.22875 27.77308,7.41884 45.16311,32.64235 45.17255,65.52087 0.008,27.12215 -9.15401,46.9438 -33.5461,72.5774 l -7.96729,8.37281 11.06012,12.19157 c 12.15896,13.40279 25.96517,30.46536 51.20674,63.28443 10.94549,14.23133 17.43889,21.5738 19.07903,21.5738 1.36749,0 17.90077,-11.51852 36.74064,-25.59671 49.45181,-36.95313 77.03525,-55.23389 99.73791,-66.10072 14.58504,-6.98125 13.81122,-6.17568 11.73134,-12.21259 -2.9044,-8.43007 -7.21495,-34.44247 -7.21495,-43.53921 0,-32.66684 17.37315,-64.19853 44.19422,-80.21107 10.1918,-6.08464 27.31787,-10.21551 38.43159,-9.26983 28.004,2.38289 52.9865,26.24576 59.46273,56.79783 2.44216,11.52107 2.38472,33.29091 -0.11587,43.89776 -1.62885,6.90928 -13.05041,37.09 -14.63655,38.67615 -0.24368,0.24368 -8.144,-0.77559 -17.55627,-2.26503 -14.96627,-2.36832 -41.65593,-5.15228 -50.89404,-5.30867 -2.43492,-0.0412 -2.89857,0.44002 -2.12573,2.20635 3.2173,7.35328 10.0404,33.96495 11.73444,45.76708 1.15094,8.01856 2.333,30.06567 2.81434,52.49199 0.45646,21.26667 1.67779,71.96667 2.71407,112.66667 1.03628,40.7 2.29177,90.05 2.78999,109.66667 0.49821,19.61667 0.61304,35.66667 0.25517,35.66667 -0.35787,0 -4.1946,-1.22127 -8.52607,-2.71392 -32.91761,-11.34368 -72.29647,-7.77468 -99.54309,9.0218 -24.89144,15.34461 -35.04661,34.49544 -36.60974,69.03935 -0.4217,9.31913 -0.0605,21.00404 0.86381,27.95035 2.31072,17.36402 9.68967,44.83952 17.47296,65.06052 3.73481,9.70305 7.09745,18.87765 7.47252,20.38803 0.55219,2.22356 -3.05527,5.94793 -18.95767,19.57216 -10.80178,9.25432 -20.98773,17.1644 -22.63545,17.57796 -3.12496,0.7843 -30.23938,15.87364 -59.93873,33.35623 -20.57403,12.11094 -50.4638,27.47521 -65.33333,33.58333 -5.86667,2.4099 -10.06667,4.4499 -9.33333,4.5333 0.73333,0.083 0.13333,0.6673 -1.33334,1.2976 -1.46666,0.6302 -8.96666,1.1265 -16.66666,1.1028 l -14,-0.043 -6.66667,-6.8632 z m 436.66665,-332.74476 -12.66666,-3.50609 -1.51514,-6.11032 c -1.64112,-6.6184 -4.92561,-28.58114 -7.4528,-49.83538 -1.08878,-9.15694 -1.62097,-46.32677 -1.699,-118.66667 -0.0625,-57.93333 -0.61853,-109.48267 -1.23565,-114.55407 l -1.12201,-9.22073 9.17896,5.02817 c 44.73872,24.50758 73.28874,65.19246 79.12177,112.75151 5.69453,46.42991 -1.84518,89.42741 -24.54847,139.99513 -6.89772,15.36348 -22.93237,46.25928 -24.4429,47.09693 -0.52328,0.29019 -6.65143,-1.05013 -13.6181,-2.97848 z"
            style="fill:#f64a2d;stroke-width:1.33333" />
         <path id="path839"
            d="m 682.66665,357.86587 c -17.03715,-3.14446 -48.14943,-5.94651 -59.33544,-5.3439 -5.86782,0.31612 -16.66782,1.63171 -24,2.92356 -19.62148,3.45707 -19.64883,3.45383 -21.64491,-2.5684 -2.84021,-8.56893 -7.01965,-34.16665 -7.01965,-42.99301 0,-32.66684 17.37315,-64.19853 44.19422,-80.21107 10.1918,-6.08464 27.31787,-10.21551 38.43159,-9.26983 28.004,2.38289 52.9865,26.24576 59.46273,56.79783 2.23727,10.55444 2.47107,31.951 0.45601,41.73333 -0.80049,3.8861 -4.48069,14.71563 -8.17822,24.06563 -7.58539,19.18123 -5.71621,17.93887 -22.36633,14.86586 z m -341.33333,-3.19919 c -2.56666,-2.16055 -5.41666,-3.9444 -6.33333,-3.96414 -0.91667,-0.0197 -1.66667,-0.51241 -1.66667,-1.09486 0,-0.58246 -4.95,-4.66207 -11,-9.0658 -24.88493,-18.11351 -33.85564,-22.42538 -63.66666,-30.60207 -12.19341,-3.34445 -12.41553,-3.65123 -10.65545,-14.71551 6.86392,-43.14828 32.94838,-74.16841 68.2659,-81.18308 12.57212,-2.49704 19.68347,-2.55433 28.38955,-0.22875 44.02225,11.75938 59.91091,70.70793 30.85641,114.48039 -7.51616,11.32358 -24.62483,30.37899 -27.23855,30.33795 -1.25649,-0.0197 -4.38453,-1.80358 -6.9512,-3.96413 z"
            style="fill:#31302e;stroke-width:1.33333" />
      </g>
   </g>
</svg>