<?xml version="1.0" encoding="UTF-8" standalone="no"?>
<svg
   xmlns:dc="http://purl.org/dc/elements/1.1/"
   xmlns:cc="http://creativecommons.org/ns#"
   xmlns:rdf="http://www.w3.org/1999/02/22-rdf-syntax-ns#"
   xmlns:svg="http://www.w3.org/2000/svg"
   xmlns="http://www.w3.org/2000/svg"
   xmlns:xlink="http://www.w3.org/1999/xlink"
   xmlns:sodipodi="http://sodipodi.sourceforge.net/DTD/sodipodi-0.dtd"
   xmlns:inkscape="http://www.inkscape.org/namespaces/inkscape"
   inkscape:version="1.0 (4035a4fb49, 2020-05-01)"
   sodipodi:docname="logoshield_dark (4th copy).svg"
   id="svg3799"
   version="1.1"
   height="512"
   width="512"
   viewBox="0 0 20 20"
   inkscape:export-filename="/home/b/Pictures/source/logoshield_dark (3rd copy).png"
   inkscape:export-xdpi="384"
   inkscape:export-ydpi="384">
  <metadata
     id="metadata3805">
    <rdf:RDF>
      <cc:Work
         rdf:about="">
        <dc:format>image/svg+xml</dc:format>
        <dc:type
           rdf:resource="http://purl.org/dc/dcmitype/StillImage" />
      </cc:Work>
    </rdf:RDF>
  </metadata>
  <defs
     id="defs3803">
    <linearGradient
       inkscape:collect="always"
       id="linearGradient925">
      <stop
         style="stop-color:#141f3d;stop-opacity:1"
         offset="0"
         id="stop920" />
      <stop
         style="stop-color:#04060c;stop-opacity:1"
         offset="1"
         id="stop923" />
    </linearGradient>
    <linearGradient
       id="linearGradient910"
       inkscape:collect="always">
      <stop
         id="stop906"
         offset="0"
         style="stop-color:#04060c;stop-opacity:1" />
      <stop
         id="stop908"
         offset="1"
         style="stop-color:#000000;stop-opacity:1" />
    </linearGradient>
    <linearGradient
       id="linearGradient966"
       inkscape:collect="always">
      <stop
         id="stop962"
         offset="0"
         style="stop-color:#ffeeee;stop-opacity:1;" />
      <stop
         id="stop964"
         offset="1"
         style="stop-color:#ff888f;stop-opacity:1" />
    </linearGradient>
    <linearGradient
       id="linearGradient926"
       inkscape:collect="always">
      <stop
         id="stop922"
         offset="0"
         style="stop-color:#04060c;stop-opacity:1" />
      <stop
         id="stop924"
         offset="1"
         style="stop-color:#141f3d;stop-opacity:1" />
    </linearGradient>
    <linearGradient
       inkscape:collect="always"
       xlink:href="#linearGradient910"
       id="linearGradient3504"
       x1="0"
       y1="10.007058"
       x2="20.051949"
       y2="10.007058"
       gradientUnits="userSpaceOnUse" />
    <linearGradient
       inkscape:collect="always"
       xlink:href="#linearGradient926"
       id="linearGradient3512"
       x1="-0.0155078"
       y1="10.007058"
       x2="20.067455"
       y2="10.007058"
       gradientUnits="userSpaceOnUse" />
    <filter
       height="1.0400487"
       y="-0.020024326"
       width="1.0405362"
       x="-0.02026809"
       id="filter924"
       inkscape:label="Drop Shadow"
       style="color-interpolation-filters:sRGB;">
      <feFlood
         id="feFlood914"
         result="flood"
         flood-color="rgb(0,0,0)"
         flood-opacity="0.501961" />
      <feComposite
         id="feComposite916"
         result="composite1"
         operator="in"
         in2="SourceGraphic"
         in="flood" />
      <feGaussianBlur
         id="feGaussianBlur918"
         result="blur"
         stdDeviation="0.094108575"
         in="composite1" />
      <feOffset
         id="feOffset920"
         result="offset"
         dy="12"
         dx="5.9633" />
      <feComposite
         id="feComposite922"
         result="fbSourceGraphic"
         operator="over"
         in2="offset"
         in="SourceGraphic" />
      <feColorMatrix
         result="fbSourceGraphicAlpha"
         in="fbSourceGraphic"
         values="0 0 0 -1 0 0 0 0 -1 0 0 0 0 -1 0 0 0 0 1 0"
         id="feColorMatrix969" />
      <feFlood
         id="feFlood971"
         flood-opacity="0.501961"
         flood-color="rgb(0,0,0)"
         result="flood"
         in="fbSourceGraphic" />
      <feComposite
         in2="fbSourceGraphic"
         id="feComposite973"
         in="flood"
         operator="in"
         result="composite1" />
      <feGaussianBlur
         id="feGaussianBlur975"
         in="composite1"
         stdDeviation="8"
         result="blur" />
      <feOffset
         id="feOffset977"
         dx="5.9633"
         dy="12"
         result="offset" />
      <feComposite
         in2="offset"
         id="feComposite979"
         in="fbSourceGraphic"
         operator="over"
         result="fbSourceGraphic" />
      <feColorMatrix
         result="fbSourceGraphicAlpha"
         in="fbSourceGraphic"
         values="0 0 0 -1 0 0 0 0 -1 0 0 0 0 -1 0 0 0 0 1 0"
         id="feColorMatrix981" />
      <feFlood
         id="feFlood983"
         flood-opacity="0.501961"
         flood-color="rgb(0,0,0)"
         result="flood"
         in="fbSourceGraphic" />
      <feComposite
         in2="fbSourceGraphic"
         id="feComposite985"
         in="flood"
         operator="in"
         result="composite1" />
      <feGaussianBlur
         id="feGaussianBlur987"
         in="composite1"
         stdDeviation="8"
         result="blur" />
      <feOffset
         id="feOffset989"
         dx="5.9633"
         dy="12"
         result="offset" />
      <feComposite
         in2="offset"
         id="feComposite991"
         in="fbSourceGraphic"
         operator="over"
         result="fbSourceGraphic" />
      <feColorMatrix
         result="fbSourceGraphicAlpha"
         in="fbSourceGraphic"
         values="0 0 0 -1 0 0 0 0 -1 0 0 0 0 -1 0 0 0 0 1 0"
         id="feColorMatrix993" />
      <feFlood
         id="feFlood995"
         flood-opacity="0.501961"
         flood-color="rgb(0,0,0)"
         result="flood"
         in="fbSourceGraphic" />
      <feComposite
         in2="fbSourceGraphic"
         id="feComposite997"
         in="flood"
         operator="in"
         result="composite1" />
      <feGaussianBlur
         id="feGaussianBlur999"
         in="composite1"
         stdDeviation="8"
         result="blur" />
      <feOffset
         id="feOffset1001"
         dx="5.9633"
         dy="12"
         result="offset" />
      <feComposite
         in2="offset"
         id="feComposite1003"
         in="fbSourceGraphic"
         operator="over"
         result="fbSourceGraphic" />
      <feColorMatrix
         result="fbSourceGraphicAlpha"
         in="fbSourceGraphic"
         values="0 0 0 -1 0 0 0 0 -1 0 0 0 0 -1 0 0 0 0 1 0"
         id="feColorMatrix1005" />
      <feFlood
         id="feFlood1007"
         flood-opacity="0.501961"
         flood-color="rgb(0,0,0)"
         result="flood"
         in="fbSourceGraphic" />
      <feComposite
         in2="fbSourceGraphic"
         id="feComposite1009"
         in="flood"
         operator="in"
         result="composite1" />
      <feGaussianBlur
         id="feGaussianBlur1011"
         in="composite1"
         stdDeviation="8"
         result="blur" />
      <feOffset
         id="feOffset1013"
         dx="5.9633"
         dy="12"
         result="offset" />
      <feComposite
         in2="offset"
         id="feComposite1015"
         in="fbSourceGraphic"
         operator="over"
         result="fbSourceGraphic" />
      <feColorMatrix
         result="fbSourceGraphicAlpha"
         in="fbSourceGraphic"
         values="0 0 0 -1 0 0 0 0 -1 0 0 0 0 -1 0 0 0 0 1 0"
         id="feColorMatrix1017" />
      <feFlood
         id="feFlood1019"
         flood-opacity="0.501961"
         flood-color="rgb(0,0,0)"
         result="flood"
         in="fbSourceGraphic" />
      <feComposite
         in2="fbSourceGraphic"
         id="feComposite1021"
         in="flood"
         operator="in"
         result="composite1" />
      <feGaussianBlur
         id="feGaussianBlur1023"
         in="composite1"
         stdDeviation="8"
         result="blur" />
      <feOffset
         id="feOffset1025"
         dx="5.9633"
         dy="12"
         result="offset" />
      <feComposite
         in2="offset"
         id="feComposite1027"
         in="fbSourceGraphic"
         operator="over"
         result="fbSourceGraphic" />
      <feColorMatrix
         result="fbSourceGraphicAlpha"
         in="fbSourceGraphic"
         values="0 0 0 -1 0 0 0 0 -1 0 0 0 0 -1 0 0 0 0 1 0"
         id="feColorMatrix1029" />
      <feFlood
         id="feFlood1031"
         flood-opacity="0.501961"
         flood-color="rgb(0,0,0)"
         result="flood"
         in="fbSourceGraphic" />
      <feComposite
         in2="fbSourceGraphic"
         id="feComposite1033"
         in="flood"
         operator="in"
         result="composite1" />
      <feGaussianBlur
         id="feGaussianBlur1035"
         in="composite1"
         stdDeviation="8"
         result="blur" />
      <feOffset
         id="feOffset1037"
         dx="5.9633"
         dy="12"
         result="offset" />
      <feComposite
         in2="offset"
         id="feComposite1039"
         in="fbSourceGraphic"
         operator="over"
         result="fbSourceGraphic" />
      <feColorMatrix
         result="fbSourceGraphicAlpha"
         in="fbSourceGraphic"
         values="0 0 0 -1 0 0 0 0 -1 0 0 0 0 -1 0 0 0 0 1 0"
         id="feColorMatrix1041" />
      <feFlood
         id="feFlood1043"
         flood-opacity="0.501961"
         flood-color="rgb(0,0,0)"
         result="flood"
         in="fbSourceGraphic" />
      <feComposite
         in2="fbSourceGraphic"
         id="feComposite1045"
         in="flood"
         operator="in"
         result="composite1" />
      <feGaussianBlur
         id="feGaussianBlur1047"
         in="composite1"
         stdDeviation="8"
         result="blur" />
      <feOffset
         id="feOffset1049"
         dx="5.9633"
         dy="12"
         result="offset" />
      <feComposite
         in2="offset"
         id="feComposite1051"
         in="fbSourceGraphic"
         operator="over"
         result="fbSourceGraphic" />
      <feColorMatrix
         result="fbSourceGraphicAlpha"
         in="fbSourceGraphic"
         values="0 0 0 -1 0 0 0 0 -1 0 0 0 0 -1 0 0 0 0 1 0"
         id="feColorMatrix1053" />
      <feFlood
         id="feFlood1055"
         flood-opacity="0.501961"
         flood-color="rgb(0,0,0)"
         result="flood"
         in="fbSourceGraphic" />
      <feComposite
         in2="fbSourceGraphic"
         id="feComposite1057"
         in="flood"
         operator="in"
         result="composite1" />
      <feGaussianBlur
         id="feGaussianBlur1059"
         in="composite1"
         stdDeviation="8"
         result="blur" />
      <feOffset
         id="feOffset1061"
         dx="5.9633"
         dy="12"
         result="offset" />
      <feComposite
         in2="offset"
         id="feComposite1063"
         in="fbSourceGraphic"
         operator="over"
         result="composite2" />
    </filter>
    <radialGradient
       inkscape:collect="always"
       xlink:href="#linearGradient925"
       id="radialGradient916"
       cx="14.772861"
       cy="9.5290222"
       fx="14.772861"
       fy="9.5290222"
       r="8.0234356"
       gradientTransform="matrix(-0.50216364,2.103794,-1.903169,-0.45427546,30.529237,-25.781685)"
       gradientUnits="userSpaceOnUse" />
    <radialGradient
       inkscape:collect="always"
       xlink:href="#linearGradient966"
       id="radialGradient927"
       cx="5.3737178"
       cy="6.9164786"
       fx="5.3737178"
       fy="6.9164786"
       r="5.7976875"
       gradientTransform="matrix(-0.67731733,2.6641861,-2.3969761,-0.60938429,26.836743,-5.1865676)"
       gradientUnits="userSpaceOnUse" />
    <filter
       id="filter1034"
       inkscape:label="Drop Shadow"
       style="color-interpolation-filters:sRGB;">
      <feFlood
         id="feFlood1024"
         result="flood"
         flood-color="rgb(0,0,0)"
         flood-opacity="0.501961" />
      <feComposite
         id="feComposite1026"
         result="composite1"
         operator="in"
         in2="SourceGraphic"
         in="flood" />
      <feGaussianBlur
         id="feGaussianBlur1028"
         result="blur"
         stdDeviation="0.5"
         in="composite1" />
      <feOffset
         id="feOffset1030"
         result="offset"
         dy="0.6"
         dx="0.2" />
      <feComposite
         id="feComposite1032"
         result="composite2"
         operator="over"
         in2="offset"
         in="SourceGraphic" />
    </filter>
  </defs>
  <sodipodi:namedview
     inkscape:lockguides="false"
     inkscape:document-rotation="0"
     inkscape:current-layer="layer2"
     inkscape:window-maximized="1"
     inkscape:window-y="27"
     inkscape:window-x="0"
     inkscape:cy="312.27023"
     inkscape:cx="178.25526"
     inkscape:zoom="0.99321254"
     showgrid="false"
     id="namedview3801"
     inkscape:window-height="836"
     inkscape:window-width="1600"
     inkscape:pageshadow="2"
     inkscape:pageopacity="0"
     guidetolerance="10"
     gridtolerance="10"
     objecttolerance="10"
     borderopacity="1"
     bordercolor="#666666"
     pagecolor="#ffffff" />
  <g
     inkscape:groupmode="layer"
     id="layer1"
     inkscape:label="Layer back" />
  <g
     inkscape:groupmode="layer"
     id="layer2"
     inkscape:label="front">
    <path
       inkscape:connector-curvature="0"
       id="path3978"
       d="M 7.5673599,17.675288 C 6.2293482,16.919248 5.0500447,16.24504 4.9466845,16.177047 4.6371723,15.973442 4.2193197,15.622507 3.9113811,15.307542 3.3963548,14.780763 3.0109811,14.231738 2.6825785,13.55692 2.4336653,13.04544 2.3056738,12.697079 2.183911,12.199672 1.9845839,11.385411 1.9954909,11.64599 1.9855359,7.4604729 l -0.00897,-3.7726575 h 0.2154192 c 0.8969961,0 2.0909585,-0.1626516 3.1138693,-0.4241974 C 6.8898568,2.8586068 8.5466749,2.0718328 9.8093852,1.1250225 l 0.1979918,-0.14846 0.189658,0.1409764 c 1.767602,1.3138959 3.920931,2.179025 6.112698,2.4558611 0.516789,0.065273 1.147252,0.1137296 1.48506,0.1141384 l 0.228644,2.707e-4 -0.0094,3.8566499 c -0.0092,3.78653 -0.0105,3.862065 -0.06751,4.154474 -0.226692,1.162624 -0.6385,2.103578 -1.314915,3.004561 -0.346926,0.4621 -0.937863,1.032923 -1.440181,1.391172 -0.162403,0.115824 -4.751206,2.731036 -5.136061,2.927097 -0.04638,0.02363 -0.4445917,-0.191875 -2.4879742,-1.346482 z"
       style="mix-blend-mode:normal;fill:url(#radialGradient916);fill-opacity:1;fill-rule:nonzero;stroke-width:0.027818;stroke-miterlimit:4;stroke-dasharray:none;stroke:none;filter:url(#filter1034)" />
    <path
       d="m 10.036696,4.2816928 c -0.06718,-1.241e-4 -0.1373786,0.00147 -0.2113244,0.00455 C 9.5317236,4.2984549 9.4519671,4.3121489 9.2239107,4.3895799 9.0709376,4.4415085 8.8477597,4.5463526 8.6901243,4.640298 8.4575299,4.7789146 8.378242,4.8110014 8.1297442,4.867137 7.7708803,4.9482093 7.6241124,5.0219799 7.4487049,5.2095636 7.2736065,5.3968191 7.2083381,5.548636 7.2083381,5.7687782 V 5.9377889 H 6.9664067 c -0.3817457,0 -0.6936996,0.1083211 -1.1002871,0.3819428 -1.0032222,0.6751381 -1.637944,2.005174 -1.4970895,3.1369856 0.1094232,0.8792477 0.5705507,1.6393307 1.2984162,2.1401337 0.1335697,0.09191 0.2759042,0.204309 0.3162722,0.249833 0.04037,0.04553 0.1278467,0.143798 0.1943886,0.21837 0.1304863,0.146223 0.3767362,0.292429 0.6086707,0.361359 0.076077,0.02262 0.2600464,0.05439 0.4087733,0.07057 0.2796067,0.03044 0.3879315,0.02296 0.9745266,-0.06734 0.4290815,-0.06605 0.4273187,-0.06803 0.1857502,0.215961 -0.3441943,0.404636 -0.5775381,0.870479 -0.6262868,1.250196 -0.032112,0.249958 -0.033364,0.821012 -0.00218,0.987351 0.064241,0.342607 0.2164291,0.588121 0.4053723,0.654081 0.1270312,0.04436 0.2120772,0.02775 0.3047775,-0.05941 0.141878,-0.13343 0.1509086,-0.184381 0.1511307,-0.852764 2.118e-4,-0.660168 0.015529,-0.81115 0.1188911,-1.172402 0.1313197,-0.45897 0.304408,-0.707685 0.579424,-0.832523 0.095286,-0.04326 0.1900334,-0.05766 0.4359116,-0.06651 0.4134827,-0.0148 0.4670777,0.01077 0.6907647,0.33038 0.335128,0.478776 0.610491,0.733508 0.98711,0.913069 0.316504,0.150913 0.486373,0.186685 0.885358,0.186635 0.404413,-6.8e-5 0.5498,-0.03716 0.749395,-0.191247 0.102837,-0.0794 0.162414,-0.101382 0.382791,-0.141404 0.143542,-0.02605 0.33005,-0.07143 0.414555,-0.100855 0.489028,-0.170294 1.013273,-0.622654 1.248697,-1.077467 0.143997,-0.27818 0.181609,-0.445946 0.167318,-0.746331 -0.01132,-0.237762 -0.02114,-0.277081 -0.118755,-0.476326 -0.05943,-0.12129 -0.183227,-0.308181 -0.28036,-0.423319 l -0.173916,-0.206186 0.06081,-0.08302 C 15.275198,9.8027976 15.494777,9.2179625 15.493173,8.5219621 15.492169,8.0729806 15.400652,7.7074739 15.175541,7.2532479 14.850594,6.5975711 14.239204,5.9373268 13.692258,5.6514005 13.361478,5.4784818 13.249691,5.4504 12.898041,5.4519611 c -0.244587,0.00107 -0.359556,0.014682 -0.529161,0.062648 -0.121507,0.034377 -0.225405,0.051117 -0.236558,0.03814 -0.01093,-0.012728 -0.04051,-0.079712 -0.06563,-0.1488394 C 11.958195,5.1057808 11.640778,4.790375 11.23615,4.578683 10.828313,4.3653089 10.506969,4.2825622 10.036696,4.2816928 Z m -0.02911,0.4333689 c 0.444299,0.00206 0.626611,0.03535 0.977044,0.1785111 0.365332,0.1492484 0.669325,0.3998705 0.830265,0.6843717 l 0.08461,0.1495279 -0.186023,0.2039138 C 11.611146,6.04355 11.461612,6.2331341 11.381226,6.352639 11.300856,6.4721435 11.228435,6.5690933 11.220233,6.5681186 11.212033,6.5671531 11.105822,6.4833147 10.984083,6.3817597 10.515762,5.9910752 9.9952701,5.8400887 9.4609444,5.9399919 9.2344874,5.9823316 8.8828779,6.1458553 8.5895294,6.3452726 L 8.32971,6.5219247 7.983851,6.2992163 C 7.7936225,6.1767345 7.5994323,6.0566163 7.5523607,6.0323109 7.4727173,5.9911841 7.46795,5.981368 7.4837329,5.8905622 c 0.050955,-0.2931923 0.2469697,-0.4905895 0.542968,-0.546754 0.099592,-0.018894 0.100279,-0.018424 0.082435,0.053491 -0.050056,0.2017276 -0.04922,0.2259462 0.00986,0.289555 0.032086,0.034537 0.074581,0.056464 0.094474,0.048742 0.019892,-0.00772 0.1172938,-0.1164858 0.2164265,-0.2417096 0.3229246,-0.407919 0.5464981,-0.5770375 0.9317437,-0.7047495 0.2155738,-0.071467 0.2542467,-0.07591 0.6459439,-0.074075 z m 2.71246,1.1700617 c 0.281079,0 0.409457,0.031605 0.698859,0.1721774 0.633472,0.307695 1.245213,1.0359576 1.525792,1.8162946 0.08376,0.2329026 0.08526,0.2445785 0.08366,0.6715668 -0.0013,0.3565333 -0.01163,0.4724045 -0.0572,0.6452689 -0.169139,0.6415628 -0.589731,1.1735079 -1.370037,1.7327189 -0.382635,0.27422 -0.425175,0.341668 -0.22486,0.356195 0.223111,0.01619 0.710171,-0.183411 1.02207,-0.418774 0.138028,-0.104149 0.138622,-0.104294 0.1614,-0.04454 0.09631,0.253039 0.141663,0.481539 0.15664,0.789082 l 0.01619,0.334027 -0.102839,0.205843 c -0.139735,0.279584 -0.337652,0.537398 -0.523583,0.6821 -0.177063,0.137806 -0.471137,0.281237 -0.661248,0.322393 -0.173494,0.03758 -0.505201,0.04997 -0.724569,0.02713 -0.448359,-0.04669 -1.289157,-0.270581 -1.622578,-0.432062 -0.155429,-0.07528 -0.20081,-0.112873 -0.275803,-0.228697 -0.127817,-0.197456 -0.188262,-0.306896 -0.1748,-0.316542 0.0064,-0.0046 0.117114,-0.04169 0.246012,-0.08254 0.288308,-0.09135 0.865435,-0.367419 1.105524,-0.528854 0.418013,-0.281065 0.891653,-0.973327 1.027647,-1.502025 0.05039,-0.1958876 0.13233,-0.9152449 0.110729,-0.9721369 -0.03635,-0.0958 -0.09835,-0.032186 -0.238258,0.2444621 -0.192253,0.3801448 -0.370213,0.6313189 -0.561128,0.7920428 -0.178089,0.149933 -0.259683,0.200695 -0.259683,0.161714 0,-0.01428 0.01762,-0.0942 0.03911,-0.177616 0.09404,-0.3651439 0.01597,-0.6849328 -0.256691,-1.0517897 L 11.742048,8.923325 11.809718,8.714523 c 0.09469,-0.2928518 0.09339,-0.6615392 -0.0037,-0.9989862 C 11.733548,7.4637643 11.554741,7.0623754 11.420166,6.8494814 L 11.338816,6.7208819 11.58476,6.4788977 C 12.06538,6.0060293 12.296557,5.8851234 12.720077,5.8851234 Z M 7.1482125,6.291024 c 0.047974,8.626e-4 0.095556,0.00468 0.1427646,0.011428 0.2795583,0.039985 0.880801,0.2953762 0.880801,0.3741636 0,0.014033 -0.057186,0.1178996 -0.1271209,0.2307632 C 7.8037837,7.2961079 7.7018617,7.559685 7.6099696,8.031591 L 7.5637872,8.2686185 7.3370234,8.5270565 C 6.9395206,8.9800951 6.8550861,9.2232944 6.8599625,9.901514 c 0.00177,0.246253 0.015746,0.500751 0.031083,0.565548 0.015342,0.0648 0.023936,0.121709 0.019113,0.126672 -0.00482,0.0049 -0.080337,-0.139976 -0.1677943,-0.321912 C 6.639998,10.058871 6.5689038,9.9410301 6.542806,9.9410301 c -0.081967,0 -0.2035769,0.3797889 -0.2337693,0.7298769 -0.020786,0.241 0.021994,0.451426 0.1367794,0.672188 0.039658,0.07626 0.076079,0.147544 0.080938,0.158408 0.037177,0.08317 -0.3082232,-0.09319 -0.5562302,-0.28398 C 5.4966884,10.853007 5.209712,10.425501 5.0325215,9.8199349 4.9474437,9.5291881 4.9169829,8.9790193 4.9681107,8.6574458 5.0929671,7.8721488 5.5099233,7.1458132 6.0893468,6.704222 6.4581244,6.4231691 6.812394,6.2849868 7.1482125,6.291024 Z m 2.3856445,0.02685 c 0.2323409,0.00331 0.476118,0.072689 0.733275,0.2076315 0.543656,0.2852816 1.043203,0.8502461 1.229381,1.3903607 0.09534,0.2766111 0.09138,0.509567 -0.01435,0.8486322 -0.09408,0.3016645 -0.09621,0.292928 0.139636,0.5706423 0.217156,0.255708 0.268481,0.4909445 0.181329,0.8308013 -0.04657,0.181595 -0.141578,0.333911 -0.235334,0.377124 -0.036,0.01659 -0.253657,0.07796 -0.483658,0.136447 -0.588982,0.149768 -0.868279,0.245637 -1.063287,0.36494 -0.09295,0.05689 -0.1758526,0.09927 -0.1843218,0.09377 -0.00847,-0.0053 -0.030596,-0.07829 -0.049103,-0.162265 C 9.7688956,10.891999 9.6952832,10.657397 9.6238434,10.454602 9.5523991,10.251808 9.4693156,10.014795 9.4391813,9.9278811 9.3890883,9.7834767 9.3843099,9.7119723 9.3835432,9.0982504 9.3828051,8.5257015 9.3770353,8.426683 9.3444334,8.426683 c -0.087999,0 -0.1975691,0.3018636 -0.3137553,0.8646726 C 8.8695114,10.072045 8.7645695,10.802772 8.7482095,11.257935 l -0.016596,0.460975 -0.1171227,0.0058 C 8.4693101,11.73217 8.3155408,11.672097 8.0722712,11.512931 7.4278074,11.091275 7.1808863,10.512056 7.2588057,9.604662 7.299612,9.1294607 7.3136833,9.0941105 7.6695513,8.5712541 7.7505811,8.4522019 7.7964805,8.3240485 7.9229092,7.8636819 8.0292987,7.4762882 8.1300918,7.2601067 8.3139305,7.0249629 8.6883468,6.5460568 9.0902982,6.3115629 9.533857,6.317874 Z"
       style="mix-blend-mode:normal;fill:url(#radialGradient927);fill-opacity:1;stroke-width:0.0261881;filter:url(#filter924);image-rendering:auto"
       id="path4059" />
  </g>
</svg>
